<svg xmlns="http://www.w3.org/2000/svg" xml:space="preserve" id="Layer_1" width="250" height="96" x="0" y="0" style="enable-background:new 0 0 780.1 184.6" version="1.1" viewBox="0 0 780.1 184.6"><style>.st1{fill:#325083}.st2{fill:#d8b47e}</style><path d="M350 20.7v151.2" style="fill:none;stroke:#325083;stroke-width:3"/><path d="M101.9 51.2C114.9 33.7 112.3 17 91.4.6c-22.3 17.5-23.3 35.5-9.1 52.7 2.1 2.5 9.1 9.1 9.1 9.1s7.8-.1 19.6 4.5c0 0-5.4-9.4-13.1-16.1C89 43.1 79.1 29.4 91.4 18c8.3 7.7 6.5 16.4 1.7 23.7 0 0 .5 1.8 6.5 7.3.8.8 1.5 1.6 2.3 2.2M89.3 64s-5.9 6.3-9.2 16.7c-2.9 9.3-3.2 18.4-3.2 18.4-5-1.2-12.3-7.3-12.3-7.3.8-11.5 5.1-21.3 5.1-21.3C73.2 61.6 80.4 55 80.4 55l8.9 9zM50.7 81.5C33.2 68.5 16.5 71.1.1 92c17.5 22.3 35.5 23.3 52.7 9.1 2.5-2.1 9.1-9.1 9.1-9.1s-.1-7.8 4.6-19.6c0 0-9.4 5.4-16.1 13.1-7.7 8.9-21.4 18.8-32.8 6.5 7.7-8.3 16.4-6.5 23.7-1.7 0 0 1.7-.5 7.3-6.5.8-.9 1.5-1.6 2.1-2.3" class="st1"/><path d="M63.5 94s6.3 5.9 16.7 9.2c9.3 2.9 18.4 3.2 18.4 3.2-1.2 5-7.3 12.3-7.3 12.3-11.5-.8-21.3-5.2-21.3-5.2-8.9-3.4-15.5-10.6-15.5-10.6l9-8.9zM81 132.6c-13 17.5-10.4 34.2 10.5 50.6 22.3-17.5 23.3-35.5 9.1-52.7-2.1-2.5-9.1-9.1-9.1-9.1s-7.8.1-19.6-4.5c0 0 5.4 9.4 13.1 16.1 8.9 7.7 18.8 21.4 6.5 32.8-8.3-7.7-6.5-16.4-1.7-23.7 0 0-.5-1.7-6.5-7.2-.8-.9-1.5-1.7-2.3-2.3" class="st1"/><path d="M93.5 119.8s5.9-6.3 9.2-16.7c2.9-9.3 3.2-18.4 3.2-18.4 5 1.2 12.3 7.3 12.3 7.3-.8 11.5-5.1 21.3-5.1 21.3-3.4 8.9-10.6 15.5-10.6 15.5l-9-9zM132.2 102.3c17.5 13 34.2 10.4 50.6-10.5-17.5-22.3-35.5-23.3-52.7-9.1-2.5 2.1-9.1 9.1-9.1 9.1s.1 7.8-4.5 19.6c0 0 9.4-5.4 16.1-13.1 7.7-8.9 21.4-18.8 32.8-6.5-7.7 8.3-16.4 6.5-23.7 1.7 0 0-1.8.5-7.3 6.5-.9.9-1.6 1.6-2.2 2.3" class="st1"/><path d="M119.4 89.8s-6.3-5.9-16.7-9.2c-9.4-2.9-18.4-3.2-18.4-3.2 1.2-5 7.3-12.3 7.3-12.3 11.5.8 21.3 5.2 21.3 5.2 8.9 3.4 15.5 10.6 15.5 10.6l-9 8.9z" class="st1"/><path d="M20.3 72.4c3.1-1 6.4-1.5 9.8-1.5 1.4 0 2.7.1 4 .2 6.2-16.9 19.6-30.4 36.6-36.5-.2-1.3-.2-2.6-.2-3.9 0-3.5.5-6.8 1.6-10C47 27.5 27.2 47.3 20.3 72.4M71.9 163c-1-3.1-1.5-6.4-1.5-9.8 0-1.4.1-2.7.2-4-16.9-6.2-30.4-19.6-36.5-36.6-1.3.2-2.6.2-3.9.2-3.5 0-6.8-.5-10-1.6 6.9 25.2 26.6 45 51.7 51.8M162.6 111.4c-3.1 1-6.4 1.5-9.8 1.5-1.4 0-2.7-.1-4-.2-6.2 16.9-19.6 30.4-36.6 36.5.2 1.3.2 2.6.2 3.9 0 3.5-.5 6.8-1.6 10 25.1-6.8 44.9-26.6 51.8-51.7M111 20.8c1 3.1 1.5 6.4 1.5 9.8 0 1.4-.1 2.7-.2 4 16.9 6.2 30.4 19.6 36.5 36.6 1.3-.2 2.6-.2 3.9-.2 3.5 0 6.8.5 10 1.6-6.9-25.2-26.6-45-51.7-51.8" class="st2"/><path d="M203.9 122.7v-20.9h1.1l30.8 32.9.4.4c.1-2.3.2-4.6.2-6.8v-20l-.2-5-.1-.5c.9.1 1.8.2 2.7.2.5 0 1.1-.1 1.6-.2-.1.5-.1 1-.1 1.5l-.3 6.1-.6 14.8-.2 14 .2 7.1h-.9c-1.3-1.5-2.5-3-3.8-4.4l-10.2-11.3L207 112l-.1 5.9c-.1 3.1 0 6.2 0 9.3v5l.2 7.4.3 6c-1.4-.3-2.9-.3-4.3 0 .2-2.8.4-5.5.5-8.3l.3-14.6zM257 123.8l.2 13.6.3 6.8.1 1.4c-.9-.1-1.9-.3-2.9-.3-1.1 0-2.2.2-3.3.3.1-.4.1-.9.1-1.4l.3-4.9.2-14.6v-15.3l-.3-6.6c1.1.1 2.1.3 3.2.3.9 0 1.9-.1 2.9-.2-.1.6-.1 1.1-.1 1.7l-.3 5.7-.3 10.9 8.1.2 17.8-.4v-13.3l-.3-5.1c1.1.1 2.1.3 3.2.3 1 0 1.9-.1 2.9-.2-.1.6-.1 1.1-.2 1.7l-.6 20.4.2 14.1.3 6.6c-.9-.1-1.9-.3-2.8-.3-1.1 0-2.2.2-3.3.3.1-.4.1-.9.1-1.4l.3-6.4.2-13.9h-26zM299 137.2c2.4 4 5.3 6.4 10.1 6.4 5.1 0 8.7-4.1 8.7-9 0-4.2-2.8-6.3-6.3-7.9-2.9-1.4-6.1-2.4-8.8-4.2-2.8-1.9-4.4-5.2-4.4-8.6 0-8.1 6.4-12 13.9-12 3 0 6.6.9 8.9 3-.7 1.6-1.2 3.4-1.7 5.1h-.6c-1.3-3.4-4.1-5.6-7.8-5.6-4.3 0-7.9 3.1-7.9 7.5 0 2.4.9 4.3 2.7 5.8 1 .9 1.3.9 2.4 1.5.7.4 1.6.8 2.4 1.1.9.4 1.9.7 2.8 1.2.9.4 2 .8 2.9 1.3 1.4.7 2.9 1.5 3.9 2.7 1.6 1.9 2.6 4.1 2.6 6.6 0 8.9-6.9 14.1-15.4 14.1-3.1 0-8.1-1.2-10.2-3.5.6-1.8.9-3.7 1.2-5.6h.6z" class="st1"/><path d="M211 171.6c-.4-.1-.9-.1-1.4-.1-.5 0-1 .1-1.4.1-1.6-6-3.4-12-5.3-17.9l-.2-.8c.7.1 1.5.1 2.2.1.7 0 1.5-.1 2.2-.1 1.1 4.6 2.4 9.1 3.6 13.7 1.6-4.6 3.3-9.1 4.7-13.7.5.1.9.1 1.4.1.4 0 .9-.1 1.3-.1 1.2 4.6 3 9.1 4.4 13.7 1.5-4.5 2.9-9.1 4-13.7.4.1.8.1 1.2.1.4 0 .8-.1 1.2-.1v.2c-2.2 6.1-4.4 12.3-6.3 18.5-.4-.1-.9-.1-1.4-.1-.5 0-1 .1-1.4.1-1.2-4.5-2.8-8.9-4.4-13.3-1.5 4.4-3.1 8.6-4.6 13l.2.3zM243.9 164.3h5c-.8-2.1-1.6-4.3-2.4-6.4-.9 2-1.7 4-2.5 6.1l-.1.3zm-5.1 7.1 2-4.7c2-4.6 4-9.2 5.7-14 .4.1.7.1 1 .1.4 0 .7-.1 1-.1l.2.5c2.3 6 4.7 12 7.2 17.9l.1.3v.2c-.8-.1-1.6-.1-2.3-.1-.8 0-1.5.1-2.3.1-.6-1.9-1.2-3.7-1.9-5.6-1 0-2-.1-3-.1-1.1 0-2.2 0-3.3.1l-.1.4c-.6 1.7-1.3 3.4-1.7 5.2-.4-.1-.8-.1-1.3-.1-.4 0-.9.1-1.3.1v-.2zM267.4 152.9c.7.1 1.5.1 2.2.1.7 0 1.5-.1 2.2-.1-.1 1.6-.2 3.3-.2 4.9v8.4c0 1.1.1 2.3.1 3.4l1.5-.1c1.6 0 3.2-.2 4.8-.3-.1.4-.1.8-.1 1.2 0 .4 0 .8.1 1.2l-4.6-.2c-1.3 0-2.5.1-3.7.1-.8 0-1.5 0-2.3.1.2-3 .2-5.9.2-8.9v-3.3c0-2-.1-4-.2-6v-.5zM289.8 152.9c1.5 0 2.9.2 4.4.2 2.1 0 4.1-.1 6.2-.1-.1.7-.1 1.3-.1 2 0 .1 0 .2.1.3-2.1-.2-4.2-.4-6.2-.3 0 1-.1 1.9-.1 2.8v3l6.2-.2c-.1.4-.1.8-.1 1.3 0 .4.1.7.1 1-1.6-.1-3.2-.2-4.9-.2h-1.3v6.9c2.1 0 4.2-.1 6.3-.4-.1.7-.1 1.3-.1 2 0 .1 0 .2.1.3-1.6 0-3.3-.2-5-.2-1.1 0-2.2.1-3.2.1-.8 0-1.6 0-2.4.1.1-.5.1-1 .1-1.6.1-1.7.1-3.4.1-5.1v-7.4c0-1.4-.1-2.9-.2-4.3v-.2zM320.9 156.6c-.5-1.4-1.6-2.3-3.1-2.3-.9 0-1.5.1-2.2.7-.5.5-.8 1.1-.8 1.9 0 2.9 6.5 3.5 7.9 6.7.3.7.5 1.7.5 2.4 0 .8-.3 1.9-.7 2.6-.6 1.3-1.6 2.1-2.9 2.7-1.2.6-2.4.7-3.7.7-1.5 0-3.1-.4-4.4-1.1.3-1.2.6-2.3.8-3.5h.5c.4 1.9 1.9 2.9 3.8 2.9 1.7 0 3.2-.9 3.2-2.8 0-.9-.4-1.5-1-2.1-1-.7-2-1.2-3.1-1.7-.8-.4-1.5-.9-2.2-1.3-1.3-.8-1.9-2.6-1.9-4.1 0-1.9.6-3.1 2.1-4.3 1.3-1.1 2.5-1.3 4.2-1.3 1.5 0 2.8.3 4.1 1.1.1.1.2.1.2.2l-.9 2.7h-.4zM220 89.1l-.6 2.3c-1.6.8-3.6 1.2-5.4 1.2-1.4 0-2.2-.1-3.6-.4-.8-.2-2.3-.9-3-1.3-.7-.5-1.5-1.3-2-1.9-1.2-1.6-1.7-3.4-1.7-5.4 0-3.1.8-5.7 3.1-7.8 2.1-1.8 5-2.5 7.7-2.5 1.8 0 4 .5 5.6 1.3-.2.9-.4 1.9-.6 2.8h-.4c-1-1.5-2.8-2.4-4.5-2.4-4.5 0-6.4 4.2-6.4 8.2 0 1.9.4 4 1.6 5.6 1.1 1.5 3 2.3 4.9 2.3 1.7 0 3.7-.9 4.9-2h.4zM230.7 73.6c.8 0 1.6-.1 2.4-.2.4.8.8 1.6 1.1 2.4.4.9.8 1.7 1.2 2.6l1.2 2.4c.1.3.3.7.5.9 0 .1.4-.5.4-.5.2-.3.3-.6.5-.8.6-1.1 1.1-2.2 1.6-3.2.4-.7.7-1.5 1-2.2.2-.5.4-.9.6-1.4.1 0 .2 0 .3.1.7.1 1.5.1 2.2-.1-1.9 3.6-4 6.9-5.7 10.4 0 1-.1 2.1-.1 3.1 0 1.7.2 3.4.3 5.2-.8-.1-1.6-.1-2.3-.1-.8 0-1.6.1-2.3.1.2-2.1.3-4.2.3-6.2v-1.5c-2.1-3.5-3.9-7.2-5.9-10.9 1-.2 1.8-.1 2.7-.1M254.5 73.5c.4 0 .7.1 1.1.1.4 0 .8-.1 1.1-.1 2 4.4 4.2 8.6 6.3 12.9l1.6-3.1c1.7-3.2 3.3-6.5 4.8-9.8.1 0 .2 0 .3.1.7.1 1.4.1 2-.1.5 4.3 1 8.5 1.5 12.8.2 1.6.4 3.2.7 4.8.1.3.2.8.2 1.2-.7-.1-1.5-.1-2.2-.1-.7 0-1.5.1-2.2.1-.2-4.2-.7-8.4-1.1-12.6-2.1 4.2-4.1 8.4-6.1 12.6-.4-.1-.7-.1-1 0l-2.1-4.4c-1.3-2.7-2.6-5.3-3.9-7.9l-.6 4.8c-.1 1-.2 2.1-.3 3.1-.1.9-.1 1.8-.2 2.7 0 .6-.1 1.1-.1 1.7-.4-.1-.8-.1-1.3-.1-.4 0-.8.1-1.3.1 0-.3.1-.8.2-1 .3-1.4.5-2.8.7-4.2.3-1.8.5-3.6.8-5.3l1.1-8.3zM287.7 78.3v4.1c2.8.3 4.3-1.1 4.3-3.9 0-.6 0-.8-.1-1.4-.5-2.3-2.2-2-4.1-2.1v3.3zm1 6.8c-.2-.5-.5-1-.8-1.4l-.2-.2s-.1 0-.1.2c0 1.6.1 3.3.1 4.9v.7c0 1 .1 1.9.2 2.9-.7-.1-1.5-.1-2.2-.1-.7 0-1.5.1-2.2.1v-.5c0-.6.1-1.2.1-1.8.1-1.8.1-3.6.1-5.4v-5c0-2-.1-4-.2-6l1.9.1c1.3 0 2.6-.1 3.9-.1 1.3 0 3.3-.1 4.4.6 1.6.9 2.4 2.1 2.4 4 0 2.7-1.7 4.4-4.3 4.9 1.5 2.6 3.2 5.1 4.8 7.7l1 1.6c-.8-.1-1.7-.1-2.5-.1s-1.6.1-2.5.1l-3.2-5.6-.7-1.6zM323.5 77.5c0 .9-.1 1.8-.1 2.7 0 1-.1 2-.1 3-.1 3.1 0 6-2.9 7.9-1.5 1.1-3.4 1.5-5.2 1.5-3.3 0-6.9-1-7.9-4.6-.1-.5-.2-1-.2-1.5-.1-.6-.1-1.3-.1-1.9 0-1.1-.1-2.2-.1-3.4v-6.5c0-.4-.1-.8-.1-1.2.8.1 1.5.1 2.3.1.7 0 1.5-.1 2.2-.2 0 .4-.1.9-.1 1.3-.1 2.2-.2 4.3-.2 6.4 0 1.5-.1 3.7.2 5.2.2 1.3.5 2.2 1.5 3.1.9.8 1.9 1.2 3.1 1.2 2.5 0 3.9-.9 4.9-3.3.5-1.2.5-4.3.5-5.7 0-2.7 0-5.5-.2-8.2.5.1.9.1 1.4.1.5 0 .9-.1 1.4-.1-.2 1.4-.3 2.7-.3 4.1" class="st2"/><path d="m266.2 43.6.2 13.6.3 6.8.1 1.4c-.9-.1-1.9-.3-2.9-.3-1.1 0-2.2.2-3.3.3.1-.4.1-.9.1-1.4l.3-4.9.3-14.6V29.1l-.3-6.6c1.1.1 2.1.3 3.2.3.9 0 1.9-.1 2.9-.2-.1.6-.1 1.1-.1 1.7l-.3 5.7-.3 10.9-.2 2.7zM248.6 62.2c.8 2.5-12.9 3.5-17.9 3.5-16.4 0-29.3-8.4-29.3-22.5 0-13.3 12.9-22.5 29.3-22.5 5.8 0 11.9 1.1 17.1 3.1l-2.6 4.3c-3.6-1.6-8.9-2.8-14.4-2.8-12.8 0-21.9 8-21.9 18s9.1 18 21.9 18c3.8 0 8.1-.8 11.1-1.8l.9-.7v-13l-.3-6.6c1.1.1 3.1.3 4.2.3.9 0 1.9-.1 2.9-.2-.1.6-.1 1.1-.1 1.7l-.3 5.7-.6 15.5zM322.2 62.2c.8 2.5-12.9 3.5-17.9 3.5-16.4 0-29.3-8.4-29.3-22.5 0-13.3 12.9-22.5 29.3-22.5 5.8 0 11.9 1.1 17.1 3.1l-2.6 4.3c-3.6-1.6-8.9-2.8-14.4-2.8-12.8 0-21.9 8-21.9 18s9.1 18 21.9 18c3.8 0 8.1-.8 11.1-1.8l.9-.7v-13l-.3-6.6c1.1.1 3.1.3 4.2.3.9 0 1.9-.1 2.9-.2-.1.6-.1 1.1-.1 1.7l-.3 5.7-.6 15.5zM378 26h3.4l9.4 22.3h-3.5l-2.3-5.6h-10.9l-2.3 5.6h-3.4L378 26zm1.6 3-4.4 11.1h8.9L379.6 29zM405.3 46c-.9 1.2-2.7 2.7-5.6 2.7-4.9 0-7-4.4-7-8.8s2.3-8.3 7-8.3c2.8 0 4.5 1.1 5.4 2.6h.1v-9.9h3v24h-2.9V46zm-4.9.3c3.4 0 4.8-3.4 4.8-6.1 0-3-1.6-6.1-4.8-6.1s-4.5 3.1-4.5 6c-.1 2.6 1.2 6.2 4.5 6.2zM424.8 46c-.9 1.2-2.7 2.7-5.6 2.7-4.9 0-7-4.4-7-8.8s2.3-8.3 7-8.3c2.8 0 4.5 1.1 5.4 2.6h.1v-9.9h3v24h-2.9V46zm-4.9.3c3.4 0 4.8-3.4 4.8-6.1 0-3-1.6-6.1-4.8-6.1s-4.5 3.1-4.5 6c-.1 2.6 1.3 6.2 4.5 6.2zM431.6 52.8c.4.1.9.3 1.4.3 2.7 0 3.6-3.7 3.6-4 0-.4-.4-1.2-.6-1.7L430.5 32h3.3l4.4 13.5h.1l4.5-13.5h3l-6 16.7c-1.1 3.1-2.3 6.8-6.3 6.8-1 0-1.5-.1-2-.2l.1-2.5zM447.6 45.1c1.2.8 2.9 1.2 3.7 1.2 1.4 0 3.1-.6 3.1-2.3 0-3-7.1-2.7-7.1-7.3 0-3.4 2.5-5 5.8-5 1.4 0 2.6.3 3.7.6l-.3 2.6c-.7-.4-2.5-.8-3.2-.8-1.5 0-2.9.6-2.9 2 0 3.3 7.1 2.4 7.1 7.6 0 3.5-2.8 5.1-5.7 5.1-1.5 0-3.1-.2-4.5-.9l.3-2.8zM475.7 47.6c0 5-2.6 7.8-8.4 7.8-1.7 0-3.2-.2-5.9-1.1l.3-2.8c2.3 1.1 3.7 1.5 5.9 1.5 3.2 0 5.1-2.1 5.1-5.6v-1.6h-.1c-1.3 1.7-3.4 2.5-5.5 2.5-4.7 0-7-3.8-7-8s2.4-8.7 7.3-8.7c2.9 0 4.5 1.1 5.4 2.8h.1V32h2.8v15.6zm-3-7.2c0-3.4-1.6-6.3-4.8-6.3-3 0-4.5 3.3-4.5 6.1 0 3.1 1.7 5.8 4.5 5.8s4.8-2.6 4.8-5.6zM490.5 33.2c1.5-.9 3.3-1.5 5.4-1.5 4.7 0 6.6 2.3 6.6 6.8v6.8c0 1.9.1 2.7.1 3.2h-2.8v-2.1h-.1c-.7 1-2.3 2.5-5.1 2.5-3.5 0-6-1.5-6-5.1 0-4.1 4.5-5.4 7.6-5.4 1.2 0 2 0 3.2.1 0-2.8-1-4.3-4-4.3-1.7 0-3.5.6-4.7 1.7l-.2-2.7zm8.9 7.4c-.6 0-1.3-.1-1.9-.1-1.6 0-5.7.3-5.7 3.1 0 1.7 1.7 2.7 3 2.7 3 0 4.5-1.9 4.5-4.3v-1.4zM533.7 30c-1.6-1-3.3-1.5-6.1-1.5-5.2 0-8.6 3.7-8.6 8.7 0 5.2 3.8 8.7 8.4 8.7 2.2 0 2.8-.2 3.6-.4v-6.8h-4.7v-2.6h7.9v11.6c-1.2.4-3.3 1-6.8 1-7.1 0-11.8-4.5-11.8-11.6 0-6.9 5-11.5 11.8-11.5 3.3 0 4.7.5 6.6 1.1l-.3 3.3zM558 48.3h-3.5l-4.2-13.7h-.1l-4.1 13.7h-3.5L537.4 32h3.3l3.7 13.5h.1l4.2-13.5h3.6l4.1 13.5h.1l4-13.5h2.9L558 48.3zM578.7 47.7c-1.2.4-2.5 1.1-5.2 1.1-5.8 0-8.4-3.5-8.4-8.8 0-4.8 3-8.3 7.6-8.3 5.4 0 7.2 4 7.2 9.2h-11.6c0 3.2 2.5 5.4 5.4 5.4 2 0 4.3-1 5-1.6v3zm-2-9.1c0-2.5-1.5-4.5-4.1-4.5-2.9 0-4.2 2.4-4.4 4.5h8.5zM584.4 24.3h3v24h-3v-24zM593.3 24.3h3v24h-3v-24zM602.5 33.2c1.5-.9 3.3-1.5 5.4-1.5 4.7 0 6.6 2.3 6.6 6.8v6.8c0 1.9.1 2.7.1 3.2h-2.8v-2.1h-.1c-.7 1-2.3 2.5-5.1 2.5-3.5 0-6-1.5-6-5.1 0-4.1 4.5-5.4 7.6-5.4 1.2 0 2 0 3.2.1 0-2.8-1-4.3-4-4.3-1.7 0-3.5.6-4.7 1.7l-.2-2.7zm9 7.4c-.6 0-1.3-.1-1.9-.1-1.6 0-5.7.3-5.7 3.1 0 1.7 1.7 2.7 3 2.7 3 0 4.5-1.9 4.5-4.3v-1.4zM628.8 26h3.2v22.3h-3.2V26zM649.9 47.7c-1.2.4-2.5 1.1-5.2 1.1-5.8 0-8.4-3.5-8.4-8.8 0-4.8 3-8.3 7.6-8.3 5.4 0 7.2 4 7.2 9.2h-11.6c0 3.2 2.5 5.4 5.4 5.4 2 0 4.3-1 5-1.6v3zm-2-9.1c0-2.5-1.5-4.5-4.1-4.5-2.9 0-4.2 2.4-4.4 4.5h8.5zM665.5 34.8c-1.2-.5-2.3-.7-3.3-.7-3.4 0-5.2 3-5.2 6.1 0 2.9 1.6 6.1 5.4 6.1 1 0 2.3-.3 3.2-.9l.2 2.7c-1.2.6-2.7.7-3.8.7-4.9 0-8.3-3.9-8.3-8.5 0-5 3.3-8.5 8.3-8.5 1.2 0 2.8.3 3.6.6l-.1 2.4zM669.4 24.3h3v10h.1c1.1-1.7 3-2.7 5.2-2.7 4.2 0 6.1 2.6 6.1 7v9.7h-3v-8.4c0-3.8-.8-5.7-3.5-5.8-3.4 0-5 2.8-5 6.7v7.6h-3V24.3zM687.7 52.8c.4.1.9.3 1.4.3 2.7 0 3.6-3.7 3.6-4 0-.4-.4-1.2-.6-1.7L686.6 32h3.3l4.4 13.5h.1l4.5-13.5h3l-6 16.7c-1.1 3.1-2.3 6.8-6.3 6.8-1 0-1.5-.1-2-.2l.1-2.5zM716.5 46c-.9 1.2-2.7 2.7-5.6 2.7-4.9 0-7-4.4-7-8.8s2.3-8.3 7-8.3c2.8 0 4.5 1.1 5.4 2.6h.1v-9.9h3v24h-2.9V46zm-5 .3c3.4 0 4.8-3.4 4.8-6.1 0-3-1.6-6.1-4.8-6.1s-4.5 3.1-4.5 6c0 2.6 1.3 6.2 4.5 6.2zM386.4 68.1c-1.4-.8-3-1.2-4.6-1.2-5.2 0-8.6 3.7-8.6 8.7 0 5.2 3.8 8.7 8.4 8.7 1.6 0 3.7-.4 4.9-1.1l.2 3.1c-1.7.7-3.8.8-5.1.8-7.1 0-11.8-4.5-11.8-11.6 0-6.9 5-11.5 11.8-11.5 1.7 0 3.4.3 5 1l-.2 3.1zM389 91.2c.4.1.9.3 1.4.3 2.7 0 3.6-3.7 3.6-4 0-.4-.4-1.2-.6-1.7l-5.5-15.2h3.3l4.4 13.5h.1l4.5-13.5h3l-6 16.7c-1.1 3.1-2.3 6.8-6.3 6.8-1 0-1.5-.1-2-.2l.1-2.7zM406.2 70.4h2.8v2.4h.1c1.2-1.9 2.8-2.8 5.2-2.8 1.9 0 3.8 1 4.6 3.2 1.1-2.3 3.6-3.2 5.1-3.2 4.2 0 5.7 2.7 5.7 6.2v10.5h-3V77c0-2-.5-4.5-2.9-4.5-3.1 0-4.3 3-4.3 6v8.2h-3V77c0-2-.5-4.5-2.9-4.5-3.1 0-4.3 3-4.3 6v8.2h-3V70.4zM434.6 70.4h2.8V73h.1c.8-1.7 2.5-2.9 4.3-2.9.9 0 1.3.1 2 .2V73c-.5-.2-1.2-.3-1.7-.3-2.7 0-4.4 2.6-4.4 6.7v7.4h-3V70.4zM461.5 86.7h-2.9v-2.6h-.1c-.9 1.9-3.1 3-5.3 3-4.2 0-6.1-2.6-6.1-7v-9.7h3v8.4c0 3.8.8 5.7 3.5 5.8 3.4 0 5-2.8 5-6.7v-7.6h3v16.4zM480.3 91.2c-2.9-4.4-5.2-9-5.2-14.3 0-5.5 2.4-9.9 5.2-14.3h2.9c-2.5 4.4-4.9 9.2-4.9 14.3s2.4 10 4.9 14.3h-2.9zM493.6 64.4h3.4l9.4 22.3h-3.5l-2.3-5.6h-10.9l-2.3 5.6H484l9.6-22.3zm1.5 3-4.4 11.1h8.9l-4.5-11.1zM510.1 71.6c1.5-.9 3.3-1.5 5.4-1.5 4.7 0 6.6 2.3 6.6 6.8v6.8c0 1.9.1 2.7.1 3.2h-2.8v-2.1h-.1c-.7 1-2.3 2.5-5.1 2.5-3.5 0-6-1.5-6-5.1 0-4.1 4.5-5.4 7.6-5.4 1.2 0 2 0 3.2.1 0-2.8-1-4.3-4-4.3-1.7 0-3.5.6-4.7 1.7l-.2-2.7zM519 79c-.6 0-1.3-.1-1.9-.1-1.6 0-5.7.3-5.7 3.1 0 1.7 1.7 2.7 3 2.7 3 0 4.5-1.9 4.5-4.3V79zM544.3 68.4c-1.6-1-3.3-1.5-6.1-1.5-5.2 0-8.6 3.7-8.6 8.7 0 5.2 3.8 8.7 8.4 8.7 2.2 0 2.8-.2 3.6-.4v-6.8h-4.7v-2.6h7.9v11.6c-1.2.4-3.3 1-6.8 1-7.1 0-11.8-4.5-11.8-11.6 0-6.9 5-11.5 11.8-11.5 3.3 0 4.7.5 6.6 1.1l-.3 3.3zM550.5 64.4h3.2v22.3h-3.2V64.4zM574.8 68.1c-1.4-.8-3-1.2-4.6-1.2-5.2 0-8.6 3.7-8.6 8.7 0 5.2 3.8 8.7 8.4 8.7 1.6 0 3.7-.4 4.9-1.1l.2 3.1c-1.7.7-3.8.8-5.1.8-7.1 0-11.8-4.5-11.8-11.6 0-6.9 5-11.5 11.8-11.5 1.7 0 3.4.3 5 1l-.2 3.1zM579.4 62.6c2.9 4.4 5.2 9 5.2 14.3 0 5.5-2.4 9.9-5.2 14.3h-2.9c2.5-4.4 4.9-9.2 4.9-14.3s-2.4-10-4.9-14.3h2.9zM371.1 110.8h3.2v9.3H385v-9.3h3.2v22.3H385V123h-10.7v10.2h-3.2v-22.4zM406.3 132.5c-1.2.4-2.5 1.1-5.2 1.1-5.8 0-8.4-3.5-8.4-8.8 0-4.8 3-8.3 7.6-8.3 5.4 0 7.2 4 7.2 9.2h-11.6c0 3.2 2.5 5.4 5.4 5.4 2 0 4.3-1 5-1.6v3zm-2-9.1c0-2.5-1.5-4.5-4.1-4.5-2.9 0-4.2 2.4-4.4 4.5h8.5zM412.3 118c1.5-.9 3.3-1.5 5.4-1.5 4.7 0 6.6 2.3 6.6 6.8v6.8c0 1.9.1 2.7.1 3.2h-2.8V131h-.1c-.7 1-2.3 2.5-5.1 2.5-3.5 0-6-1.5-6-5.1 0-4.1 4.5-5.4 7.6-5.4 1.2 0 2 0 3.2.1 0-2.8-1-4.3-4-4.3-1.7 0-3.5.6-4.7 1.7l-.2-2.5zm8.9 7.4c-.6 0-1.3-.1-1.9-.1-1.6 0-5.7.3-5.7 3.1 0 1.7 1.7 2.7 3 2.7 3 0 4.5-1.9 4.5-4.3v-1.4zM429.7 109.1h3v24h-3v-24zM446.9 119.3h-4.3v8.9c0 1.9 1.2 2.9 2.5 2.9.9 0 1.6-.3 2-.6v2.6c-.7.2-1.6.4-2.6.4-3.1 0-5-1.5-5-4.7v-9.5h-3.7v-2.4h3.7V113l3-1v4.7h4.3v2.6zM450.7 109.1h3v10h.1c1.1-1.7 3-2.7 5.2-2.7 4.2 0 6.1 2.6 6.1 7v9.7h-3v-8.4c0-3.8-.8-5.7-3.5-5.8-3.4 0-5 2.8-5 6.7v7.6h-3v-24.1zM479.6 110.8h12.5v2.8h-9.3v6.5h8.5v2.8h-8.5v7.4h9.3v2.8h-12.5v-22.3zM508.5 130.8c-.9 1.2-2.7 2.7-5.6 2.7-4.9 0-7-4.4-7-8.8s2.3-8.3 7-8.3c2.8 0 4.5 1.1 5.4 2.6h.1v-9.9h3v24h-2.9v-2.3zm-5 .3c3.4 0 4.8-3.4 4.8-6.1 0-3-1.6-6.1-4.8-6.1s-4.5 3.1-4.5 6c0 2.6 1.3 6.2 4.5 6.2zM530.9 133.1H528v-2.6h-.1c-.9 1.9-3.1 3-5.3 3-4.2 0-6.1-2.6-6.1-7v-9.7h3v8.4c0 3.8.8 5.7 3.5 5.8 3.4 0 5-2.8 5-6.7v-7.6h3v16.4zM546.4 119.6c-1.2-.5-2.3-.7-3.3-.7-3.4 0-5.2 3-5.2 6.1 0 2.9 1.6 6.1 5.4 6.1 1 0 2.3-.3 3.2-.9l.2 2.7c-1.2.6-2.7.7-3.8.7-4.9 0-8.3-3.9-8.3-8.5 0-5 3.3-8.5 8.3-8.5 1.2 0 2.8.3 3.6.6l-.1 2.4zM551 118c1.5-.9 3.3-1.5 5.4-1.5 4.7 0 6.6 2.3 6.6 6.8v6.8c0 1.9.1 2.7.1 3.2h-2.8V131h-.1c-.7 1-2.3 2.5-5.1 2.5-3.5 0-6-1.5-6-5.1 0-4.1 4.5-5.4 7.6-5.4 1.2 0 2 0 3.2.1 0-2.8-1-4.3-4-4.3-1.7 0-3.5.6-4.7 1.7l-.2-2.5zm8.9 7.4c-.6 0-1.3-.1-1.9-.1-1.6 0-5.7.3-5.7 3.1 0 1.7 1.7 2.7 3 2.7 3 0 4.5-1.9 4.5-4.3v-1.4zM576.7 119.3h-4.3v8.9c0 1.9 1.2 2.9 2.5 2.9.9 0 1.6-.3 2-.6v2.6c-.7.2-1.6.4-2.6.4-3.1 0-5-1.5-5-4.7v-9.5h-3.7v-2.4h3.7V113l3-1v4.7h4.3v2.6zM584 113.2h-3.4v-3.4h3.4v3.4zm-3.2 3.6h3v16.3h-3v-16.3zM596.6 116.4c5 0 8.3 3.6 8.3 8.5 0 4.7-3.4 8.5-8.3 8.5s-8.3-3.9-8.3-8.5c0-4.9 3.3-8.5 8.3-8.5zm0 14.7c3.5 0 5.1-3.2 5.1-6.1 0-3.1-1.9-6.1-5.1-6.1-3.2 0-5.1 3-5.1 6.1 0 2.9 1.5 6.1 5.1 6.1zM608.9 116.8h2.9v2.6h.1c.9-1.9 3.1-3 5.3-3 4.2 0 6.1 2.6 6.1 7v9.7h-3v-8.4c0-3.8-.8-5.7-3.5-5.8-3.4 0-5 2.8-5 6.7v7.6h-3v-16.4zM638.1 118c1.5-.9 3.3-1.5 5.4-1.5 4.7 0 6.6 2.3 6.6 6.8v6.8c0 1.9.1 2.7.1 3.2h-2.8V131h-.1c-.7 1-2.3 2.5-5.1 2.5-3.5 0-6-1.5-6-5.1 0-4.1 4.5-5.4 7.6-5.4 1.2 0 2 0 3.2.1 0-2.8-1-4.3-4-4.3-1.7 0-3.5.6-4.7 1.7l-.2-2.5zm9 7.4c-.6 0-1.3-.1-1.9-.1-1.6 0-5.7.3-5.7 3.1 0 1.7 1.7 2.7 3 2.7 3 0 4.5-1.9 4.5-4.3v-1.4zM655.2 116.8h2.9v2.6h.1c.9-1.9 3.1-3 5.3-3 4.2 0 6.1 2.6 6.1 7v9.7h-3v-8.4c0-3.8-.8-5.7-3.5-5.8-3.4 0-5 2.8-5 6.7v7.6h-3v-16.4zM686.3 130.8c-.9 1.2-2.7 2.7-5.6 2.7-4.9 0-7-4.4-7-8.8s2.3-8.3 7-8.3c2.8 0 4.5 1.1 5.4 2.6h.1v-9.9h3v24h-2.9v-2.3zm-5 .3c3.4 0 4.8-3.4 4.8-6.1 0-3-1.6-6.1-4.8-6.1s-4.5 3.1-4.5 6c-.1 2.6 1.3 6.2 4.5 6.2zM370.9 149.2h3.2v22.3h-3.2v-22.3zM379.5 155.2h2.8v2.4h.1c1.2-1.9 2.8-2.8 5.2-2.8 1.9 0 3.8 1 4.6 3.2 1.1-2.3 3.6-3.2 5.1-3.2 4.2 0 5.7 2.7 5.7 6.2v10.5h-3v-9.7c0-2-.5-4.5-2.9-4.5-3.1 0-4.3 3-4.3 6v8.2h-3v-9.7c0-2-.5-4.5-2.9-4.5-3.1 0-4.3 3-4.3 6v8.2h-3v-16.3zM408 155.2h2.9v2.3h.1c.8-1.2 2.7-2.7 5.5-2.7 4.7 0 7 3.9 7 8.3 0 4.5-2.1 8.8-7 8.8-2.9 0-4.5-1.1-5.4-2.6h-.1v9h-3v-23.1zm7.8 2.1c-3.3 0-4.8 3.1-4.8 6.1 0 2.7 1.4 6.1 4.8 6.1 3.2 0 4.6-3.6 4.5-6.2.1-2.9-1.2-6-4.5-6zM427.5 155.2h2.8v2.5h.1c.8-1.7 2.5-2.9 4.3-2.9.9 0 1.3.1 2 .2v2.7c-.5-.2-1.2-.3-1.7-.3-2.7 0-4.4 2.6-4.4 6.7v7.4h-3v-16.3zM447.2 154.8c5 0 8.3 3.6 8.3 8.5 0 4.7-3.4 8.5-8.3 8.5s-8.3-3.9-8.3-8.5c0-4.9 3.3-8.5 8.3-8.5zm0 14.7c3.5 0 5.1-3.2 5.1-6.1 0-3.1-1.9-6.1-5.1-6.1-3.2 0-5.1 3-5.1 6.1 0 2.9 1.6 6.1 5.1 6.1zM466.8 171.5h-3.6l-5.9-16.3h3.3l4.4 13.3h.1l4.5-13.3h3l-5.8 16.3zM488 170.9c-1.2.4-2.5 1.1-5.2 1.1-5.8 0-8.4-3.5-8.4-8.8 0-4.8 3-8.3 7.6-8.3 5.4 0 7.2 4 7.2 9.2h-11.6c0 3.2 2.5 5.4 5.4 5.4 2 0 4.3-1 5-1.6v3zm-1.9-9.1c0-2.5-1.5-4.5-4.1-4.5-2.9 0-4.2 2.4-4.4 4.5h8.5zM493.3 155.2h2.8v2.4h.1c1.2-1.9 2.8-2.8 5.2-2.8 1.9 0 3.8 1 4.6 3.2 1.1-2.3 3.6-3.2 5.1-3.2 4.2 0 5.7 2.7 5.7 6.2v10.5h-3v-9.7c0-2-.5-4.5-2.9-4.5-3.1 0-4.3 3-4.3 6v8.2h-3v-9.7c0-2-.5-4.5-2.9-4.5-3.1 0-4.3 3-4.3 6v8.2h-3v-16.3zM534.3 170.9c-1.2.4-2.5 1.1-5.2 1.1-5.8 0-8.4-3.5-8.4-8.8 0-4.8 3-8.3 7.6-8.3 5.4 0 7.2 4 7.2 9.2h-11.6c0 3.2 2.5 5.4 5.4 5.4 2 0 4.3-1 5-1.6v3zm-2-9.1c0-2.5-1.5-4.5-4.1-4.5-2.9 0-4.2 2.4-4.4 4.5h8.5zM539.6 155.2h2.9v2.6h.1c.9-1.9 3.1-3 5.3-3 4.2 0 6.1 2.6 6.1 7v9.7h-3v-8.4c0-3.8-.8-5.7-3.5-5.8-3.4 0-5 2.8-5 6.7v7.6h-3v-16.4zM567.8 157.7h-4.3v8.9c0 1.9 1.2 2.9 2.5 2.9.9 0 1.6-.3 2-.6v2.6c-.7.2-1.6.4-2.6.4-3.1 0-5-1.5-5-4.7v-9.5h-3.7v-2.4h3.7v-3.8l3-1v4.7h4.3v2.5zM578 149.2h3.5l5.3 19.1h.1l4.8-19.1h4.5l4.8 19.1h.1l5.3-19.1h3.4l-6.9 22.3h-4.1L594 152h-.1l-4.9 19.5h-4.3l-6.7-22.3zM613.2 156.4c1.5-.9 3.3-1.5 5.4-1.5 4.7 0 6.6 2.3 6.6 6.8v6.8c0 1.9.1 2.7.1 3.2h-2.8v-2.1h-.1c-.7 1-2.3 2.5-5.1 2.5-3.5 0-6-1.5-6-5.1 0-4.1 4.5-5.4 7.6-5.4 1.2 0 2 0 3.2.1 0-2.8-1-4.3-4-4.3-1.7 0-3.5.6-4.7 1.7l-.2-2.7zm9 7.4c-.6 0-1.3-.1-1.9-.1-1.6 0-5.7.3-5.7 3.1 0 1.7 1.7 2.7 3 2.7 3 0 4.5-1.9 4.5-4.3v-1.4zM630.6 147.5h3v24h-3v-24zM651.7 170.9c-1.2.4-2.5 1.1-5.2 1.1-5.8 0-8.4-3.5-8.4-8.8 0-4.8 3-8.3 7.6-8.3 5.4 0 7.2 4 7.2 9.2h-11.6c0 3.2 2.5 5.4 5.4 5.4 2 0 4.3-1 5-1.6v3zm-2-9.1c0-2.5-1.5-4.5-4.1-4.5-2.9 0-4.2 2.4-4.4 4.5h8.5zM655.7 168.3c1.2.8 2.9 1.2 3.7 1.2 1.4 0 3.1-.6 3.1-2.3 0-3-7.1-2.7-7.1-7.3 0-3.4 2.5-5 5.8-5 1.4 0 2.6.3 3.7.6l-.3 2.6c-.7-.4-2.5-.8-3.2-.8-1.5 0-2.9.6-2.9 2 0 3.3 7.1 2.4 7.1 7.6 0 3.5-2.8 5.1-5.7 5.1-1.5 0-3.1-.2-4.5-.9l.3-2.8zM683.1 176c-2.9-4.4-5.2-9-5.2-14.3 0-5.5 2.4-9.9 5.2-14.3h2.9c-2.5 4.4-4.9 9.2-4.9 14.3s2.4 10 4.9 14.3h-2.9zM689.4 149.2h3.2v9.3h10.7v-9.3h3.2v22.3h-3.2v-10.2h-10.7v10.2h-3.2v-22.3zM712.5 149.2H725v2.8h-9.3v6.5h8.5v2.8h-8.5v7.4h9.3v2.8h-12.5v-22.3zM730.1 149.2h3.2v22.3h-3.2v-22.3zM736.2 149.2h3.5l5.3 19.1h.1l4.8-19.1h4.5l4.8 19.1h.1l5.3-19.1h3.4l-6.9 22.3H757l-4.9-19.5h-.1l-4.9 19.5H743l-6.8-22.3zM771.5 147.4c2.9 4.4 5.2 9 5.2 14.3 0 5.5-2.4 9.9-5.2 14.3h-2.9c2.5-4.4 4.9-9.2 4.9-14.3s-2.4-10-4.9-14.3h2.9z" class="st1"/></svg>